<mxfile host="Electron" modified="2023-09-10T14:23:03.085Z" agent="Mozilla/5.0 (Windows NT 10.0; Win64; x64) AppleWebKit/537.36 (KHTML, like Gecko) draw.io/21.2.8 Chrome/112.0.5615.165 Electron/24.2.0 Safari/537.36" etag="G-jCJlKc7HU9Nck4ZHyL" version="21.2.8" type="device">
  <diagram name="Page-1" id="Ds7QBqyLtPMJwqBdkIPY">
    <mxGraphModel dx="2026" dy="2076" grid="1" gridSize="10" guides="1" tooltips="1" connect="1" arrows="1" fold="1" page="1" pageScale="1" pageWidth="1100" pageHeight="850" math="0" shadow="0">
      <root>
        <mxCell id="0" />
        <mxCell id="1" parent="0" />
        <mxCell id="DE1Vgz6PxgFCmGS7JB63-10" value="Main patcher" style="swimlane;whiteSpace=wrap;html=1;" parent="1" vertex="1">
          <mxGeometry x="390" y="30" width="240" height="360" as="geometry" />
        </mxCell>
        <mxCell id="DE1Vgz6PxgFCmGS7JB63-7" value="Meddle&lt;br&gt;East" style="shape=cylinder3;whiteSpace=wrap;html=1;boundedLbl=1;backgroundOutline=1;size=15;fillColor=#cdeb8b;strokeColor=#36393d;" parent="DE1Vgz6PxgFCmGS7JB63-10" vertex="1">
          <mxGeometry x="20" y="180" width="50" height="80" as="geometry" />
        </mxCell>
        <mxCell id="DE1Vgz6PxgFCmGS7JB63-5" value="CH" style="shape=cylinder3;whiteSpace=wrap;html=1;boundedLbl=1;backgroundOutline=1;size=15;fillColor=#d0cee2;strokeColor=#56517e;" parent="DE1Vgz6PxgFCmGS7JB63-10" vertex="1">
          <mxGeometry x="25" y="110" width="40" height="60" as="geometry" />
        </mxCell>
        <mxCell id="DE1Vgz6PxgFCmGS7JB63-4" value="JAP" style="shape=cylinder3;whiteSpace=wrap;html=1;boundedLbl=1;backgroundOutline=1;size=15;fillColor=#d0cee2;strokeColor=#56517e;" parent="DE1Vgz6PxgFCmGS7JB63-10" vertex="1">
          <mxGeometry x="100" y="230" width="40" height="60" as="geometry" />
        </mxCell>
        <mxCell id="fZgS-SUWpDb8ZDhZ1dWq-11" value="GER" style="shape=cylinder3;whiteSpace=wrap;html=1;boundedLbl=1;backgroundOutline=1;size=15;fillColor=#d0cee2;strokeColor=#56517e;" parent="DE1Vgz6PxgFCmGS7JB63-10" vertex="1">
          <mxGeometry x="100" y="140" width="40" height="60" as="geometry" />
        </mxCell>
        <mxCell id="DE1Vgz6PxgFCmGS7JB63-3" value="USA" style="shape=cylinder3;whiteSpace=wrap;html=1;boundedLbl=1;backgroundOutline=1;size=15;fillColor=#cdeb8b;strokeColor=#36393d;" parent="DE1Vgz6PxgFCmGS7JB63-10" vertex="1">
          <mxGeometry x="170" y="50" width="40" height="60" as="geometry" />
        </mxCell>
        <mxCell id="fZgS-SUWpDb8ZDhZ1dWq-20" value="CAN" style="shape=cylinder3;whiteSpace=wrap;html=1;boundedLbl=1;backgroundOutline=1;size=15;fillColor=#d0cee2;strokeColor=#56517e;" parent="DE1Vgz6PxgFCmGS7JB63-10" vertex="1">
          <mxGeometry x="100" y="60" width="40" height="60" as="geometry" />
        </mxCell>
        <mxCell id="fZgS-SUWpDb8ZDhZ1dWq-21" value="AUS" style="shape=cylinder3;whiteSpace=wrap;html=1;boundedLbl=1;backgroundOutline=1;size=15;fillColor=#d0cee2;strokeColor=#56517e;" parent="DE1Vgz6PxgFCmGS7JB63-10" vertex="1">
          <mxGeometry x="25" y="270" width="40" height="60" as="geometry" />
        </mxCell>
        <mxCell id="fZgS-SUWpDb8ZDhZ1dWq-22" value="USA-Col" style="shape=cylinder3;whiteSpace=wrap;html=1;boundedLbl=1;backgroundOutline=1;size=15;fillColor=#cdeb8b;strokeColor=#36393d;" parent="DE1Vgz6PxgFCmGS7JB63-10" vertex="1">
          <mxGeometry x="170" y="130" width="40" height="70" as="geometry" />
        </mxCell>
        <mxCell id="fZgS-SUWpDb8ZDhZ1dWq-23" value="EU" style="shape=cylinder3;whiteSpace=wrap;html=1;boundedLbl=1;backgroundOutline=1;size=15;fillColor=#cdeb8b;strokeColor=#36393d;" parent="DE1Vgz6PxgFCmGS7JB63-10" vertex="1">
          <mxGeometry x="170" y="220" width="40" height="60" as="geometry" />
        </mxCell>
        <mxCell id="fZgS-SUWpDb8ZDhZ1dWq-34" value="Defoult" style="shape=cylinder3;whiteSpace=wrap;html=1;boundedLbl=1;backgroundOutline=1;size=15;fillColor=#ffff88;strokeColor=#36393d;" parent="DE1Vgz6PxgFCmGS7JB63-10" vertex="1">
          <mxGeometry x="20" y="30" width="50" height="60" as="geometry" />
        </mxCell>
        <mxCell id="fZgS-SUWpDb8ZDhZ1dWq-50" value="Uncensor" style="shape=cylinder3;whiteSpace=wrap;html=1;boundedLbl=1;backgroundOutline=1;size=15;fillColor=#ffff88;strokeColor=#36393d;" parent="DE1Vgz6PxgFCmGS7JB63-10" vertex="1">
          <mxGeometry x="160" y="290" width="60" height="60" as="geometry" />
        </mxCell>
        <mxCell id="fZgS-SUWpDb8ZDhZ1dWq-18" style="edgeStyle=orthogonalEdgeStyle;rounded=0;orthogonalLoop=1;jettySize=auto;html=1;" parent="1" source="fZgS-SUWpDb8ZDhZ1dWq-12" edge="1">
          <mxGeometry relative="1" as="geometry">
            <mxPoint x="900" y="245" as="targetPoint" />
          </mxGeometry>
        </mxCell>
        <mxCell id="fZgS-SUWpDb8ZDhZ1dWq-12" value="US" style="shape=cylinder3;whiteSpace=wrap;html=1;boundedLbl=1;backgroundOutline=1;size=15;fillColor=#d0cee2;strokeColor=#56517e;" parent="1" vertex="1">
          <mxGeometry x="780" y="200" width="60" height="90" as="geometry" />
        </mxCell>
        <mxCell id="fZgS-SUWpDb8ZDhZ1dWq-15" value="sub-patcher" style="swimlane;whiteSpace=wrap;html=1;" parent="1" vertex="1">
          <mxGeometry x="900" y="70" width="150" height="380" as="geometry" />
        </mxCell>
        <mxCell id="fZgS-SUWpDb8ZDhZ1dWq-14" value="Sex" style="shape=cylinder3;whiteSpace=wrap;html=1;boundedLbl=1;backgroundOutline=1;size=15;fillColor=#d0cee2;strokeColor=#56517e;" parent="fZgS-SUWpDb8ZDhZ1dWq-15" vertex="1">
          <mxGeometry x="45" y="60" width="60" height="90" as="geometry" />
        </mxCell>
        <mxCell id="fZgS-SUWpDb8ZDhZ1dWq-13" value="gore" style="shape=cylinder3;whiteSpace=wrap;html=1;boundedLbl=1;backgroundOutline=1;size=15;fillColor=#d0cee2;strokeColor=#56517e;" parent="fZgS-SUWpDb8ZDhZ1dWq-15" vertex="1">
          <mxGeometry x="45" y="160" width="60" height="90" as="geometry" />
        </mxCell>
        <mxCell id="fZgS-SUWpDb8ZDhZ1dWq-49" value="Culture" style="shape=cylinder3;whiteSpace=wrap;html=1;boundedLbl=1;backgroundOutline=1;size=15;fillColor=#d0cee2;strokeColor=#56517e;" parent="fZgS-SUWpDb8ZDhZ1dWq-15" vertex="1">
          <mxGeometry x="45" y="260" width="60" height="90" as="geometry" />
        </mxCell>
        <mxCell id="fZgS-SUWpDb8ZDhZ1dWq-16" style="edgeStyle=orthogonalEdgeStyle;rounded=0;orthogonalLoop=1;jettySize=auto;html=1;entryX=0.034;entryY=0.551;entryDx=0;entryDy=0;entryPerimeter=0;exitX=1;exitY=0.5;exitDx=0;exitDy=0;exitPerimeter=0;" parent="1" source="DE1Vgz6PxgFCmGS7JB63-3" target="fZgS-SUWpDb8ZDhZ1dWq-12" edge="1">
          <mxGeometry relative="1" as="geometry">
            <mxPoint x="630" y="140" as="sourcePoint" />
            <mxPoint x="790" y="250" as="targetPoint" />
            <Array as="points">
              <mxPoint x="740" y="110" />
              <mxPoint x="740" y="250" />
            </Array>
          </mxGeometry>
        </mxCell>
        <mxCell id="fZgS-SUWpDb8ZDhZ1dWq-24" value="Whole" style="shape=step;perimeter=stepPerimeter;whiteSpace=wrap;html=1;fixedSize=1;" parent="1" vertex="1">
          <mxGeometry x="325" y="410" width="100" height="50" as="geometry" />
        </mxCell>
        <mxCell id="fZgS-SUWpDb8ZDhZ1dWq-25" value="Country" style="shape=step;perimeter=stepPerimeter;whiteSpace=wrap;html=1;fixedSize=1;" parent="1" vertex="1">
          <mxGeometry x="415" y="410" width="100" height="50" as="geometry" />
        </mxCell>
        <mxCell id="fZgS-SUWpDb8ZDhZ1dWq-26" value="City" style="shape=step;perimeter=stepPerimeter;whiteSpace=wrap;html=1;fixedSize=1;" parent="1" vertex="1">
          <mxGeometry x="595" y="410" width="100" height="50" as="geometry" />
        </mxCell>
        <mxCell id="fZgS-SUWpDb8ZDhZ1dWq-27" value="State" style="shape=step;perimeter=stepPerimeter;whiteSpace=wrap;html=1;fixedSize=1;" parent="1" vertex="1">
          <mxGeometry x="505" y="410" width="100" height="50" as="geometry" />
        </mxCell>
        <mxCell id="fZgS-SUWpDb8ZDhZ1dWq-28" value="[1]xxxxx" style="shape=step;perimeter=stepPerimeter;whiteSpace=wrap;html=1;fixedSize=1;" parent="1" vertex="1">
          <mxGeometry x="325" y="490" width="100" height="50" as="geometry" />
        </mxCell>
        <mxCell id="fZgS-SUWpDb8ZDhZ1dWq-29" value="[2]xxxxx" style="shape=step;perimeter=stepPerimeter;whiteSpace=wrap;html=1;fixedSize=1;" parent="1" vertex="1">
          <mxGeometry x="415" y="490" width="100" height="50" as="geometry" />
        </mxCell>
        <mxCell id="fZgS-SUWpDb8ZDhZ1dWq-30" value="[4]xxxxxx" style="shape=step;perimeter=stepPerimeter;whiteSpace=wrap;html=1;fixedSize=1;" parent="1" vertex="1">
          <mxGeometry x="595" y="490" width="100" height="50" as="geometry" />
        </mxCell>
        <mxCell id="fZgS-SUWpDb8ZDhZ1dWq-31" value="[3]xxxxxx" style="shape=step;perimeter=stepPerimeter;whiteSpace=wrap;html=1;fixedSize=1;" parent="1" vertex="1">
          <mxGeometry x="505" y="490" width="100" height="50" as="geometry" />
        </mxCell>
        <mxCell id="fZgS-SUWpDb8ZDhZ1dWq-33" value="uncensorn" style="shape=step;perimeter=stepPerimeter;whiteSpace=wrap;html=1;fixedSize=1;" parent="1" vertex="1">
          <mxGeometry x="325" y="560" width="100" height="50" as="geometry" />
        </mxCell>
        <mxCell id="fZgS-SUWpDb8ZDhZ1dWq-35" value="sub-patcher[1]" style="swimlane;whiteSpace=wrap;html=1;" parent="1" vertex="1">
          <mxGeometry x="1170" y="390" width="150" height="280" as="geometry" />
        </mxCell>
        <mxCell id="fZgS-SUWpDb8ZDhZ1dWq-37" value="0" style="shape=cylinder3;whiteSpace=wrap;html=1;boundedLbl=1;backgroundOutline=1;size=15;fillColor=#d0cee2;strokeColor=#56517e;" parent="fZgS-SUWpDb8ZDhZ1dWq-35" vertex="1">
          <mxGeometry x="57.5" y="30" width="35" height="50" as="geometry" />
        </mxCell>
        <mxCell id="fZgS-SUWpDb8ZDhZ1dWq-40" value="1" style="shape=cylinder3;whiteSpace=wrap;html=1;boundedLbl=1;backgroundOutline=1;size=15;fillColor=#d0cee2;strokeColor=#56517e;" parent="fZgS-SUWpDb8ZDhZ1dWq-35" vertex="1">
          <mxGeometry x="57.5" y="90" width="35" height="50" as="geometry" />
        </mxCell>
        <mxCell id="fZgS-SUWpDb8ZDhZ1dWq-41" value="3" style="shape=cylinder3;whiteSpace=wrap;html=1;boundedLbl=1;backgroundOutline=1;size=15;fillColor=#d0cee2;strokeColor=#56517e;" parent="fZgS-SUWpDb8ZDhZ1dWq-35" vertex="1">
          <mxGeometry x="57.5" y="150" width="35" height="50" as="geometry" />
        </mxCell>
        <mxCell id="fZgS-SUWpDb8ZDhZ1dWq-42" value="4" style="shape=cylinder3;whiteSpace=wrap;html=1;boundedLbl=1;backgroundOutline=1;size=15;fillColor=#d0cee2;strokeColor=#56517e;" parent="fZgS-SUWpDb8ZDhZ1dWq-35" vertex="1">
          <mxGeometry x="57.5" y="210" width="35" height="50" as="geometry" />
        </mxCell>
        <mxCell id="fZgS-SUWpDb8ZDhZ1dWq-39" style="edgeStyle=orthogonalEdgeStyle;rounded=0;orthogonalLoop=1;jettySize=auto;html=1;entryX=0;entryY=0.5;entryDx=0;entryDy=0;" parent="1" source="fZgS-SUWpDb8ZDhZ1dWq-13" target="fZgS-SUWpDb8ZDhZ1dWq-35" edge="1">
          <mxGeometry relative="1" as="geometry" />
        </mxCell>
        <mxCell id="fZgS-SUWpDb8ZDhZ1dWq-43" value="sub-patcher[1]" style="swimlane;whiteSpace=wrap;html=1;" parent="1" vertex="1">
          <mxGeometry x="1180" y="-80" width="150" height="435" as="geometry" />
        </mxCell>
        <mxCell id="fZgS-SUWpDb8ZDhZ1dWq-44" value="0" style="shape=cylinder3;whiteSpace=wrap;html=1;boundedLbl=1;backgroundOutline=1;size=15;fillColor=#d0cee2;strokeColor=#56517e;" parent="fZgS-SUWpDb8ZDhZ1dWq-43" vertex="1">
          <mxGeometry x="57.5" y="30" width="35" height="50" as="geometry" />
        </mxCell>
        <mxCell id="fZgS-SUWpDb8ZDhZ1dWq-45" value="1" style="shape=cylinder3;whiteSpace=wrap;html=1;boundedLbl=1;backgroundOutline=1;size=15;fillColor=#d0cee2;strokeColor=#56517e;" parent="fZgS-SUWpDb8ZDhZ1dWq-43" vertex="1">
          <mxGeometry x="57.5" y="90" width="35" height="50" as="geometry" />
        </mxCell>
        <mxCell id="fZgS-SUWpDb8ZDhZ1dWq-46" value="3" style="shape=cylinder3;whiteSpace=wrap;html=1;boundedLbl=1;backgroundOutline=1;size=15;fillColor=#d0cee2;strokeColor=#56517e;" parent="fZgS-SUWpDb8ZDhZ1dWq-43" vertex="1">
          <mxGeometry x="57.5" y="150" width="35" height="50" as="geometry" />
        </mxCell>
        <mxCell id="fZgS-SUWpDb8ZDhZ1dWq-47" value="4" style="shape=cylinder3;whiteSpace=wrap;html=1;boundedLbl=1;backgroundOutline=1;size=15;fillColor=#d0cee2;strokeColor=#56517e;" parent="fZgS-SUWpDb8ZDhZ1dWq-43" vertex="1">
          <mxGeometry x="57.5" y="210" width="35" height="50" as="geometry" />
        </mxCell>
        <mxCell id="fZgS-SUWpDb8ZDhZ1dWq-60" style="edgeStyle=orthogonalEdgeStyle;rounded=0;orthogonalLoop=1;jettySize=auto;html=1;" parent="fZgS-SUWpDb8ZDhZ1dWq-43" source="fZgS-SUWpDb8ZDhZ1dWq-51" edge="1">
          <mxGeometry relative="1" as="geometry">
            <mxPoint x="180" y="300" as="targetPoint" />
          </mxGeometry>
        </mxCell>
        <mxCell id="fZgS-SUWpDb8ZDhZ1dWq-51" value="Loli" style="shape=cylinder3;whiteSpace=wrap;html=1;boundedLbl=1;backgroundOutline=1;size=15;fillColor=#d0cee2;strokeColor=#56517e;" parent="fZgS-SUWpDb8ZDhZ1dWq-43" vertex="1">
          <mxGeometry x="57.5" y="275" width="35" height="50" as="geometry" />
        </mxCell>
        <mxCell id="fZgS-SUWpDb8ZDhZ1dWq-52" value="Flat&lt;br&gt;breast" style="shape=cylinder3;whiteSpace=wrap;html=1;boundedLbl=1;backgroundOutline=1;size=15;fillColor=#d0cee2;strokeColor=#56517e;" parent="fZgS-SUWpDb8ZDhZ1dWq-43" vertex="1">
          <mxGeometry x="53.75" y="340" width="42.5" height="70" as="geometry" />
        </mxCell>
        <mxCell id="fZgS-SUWpDb8ZDhZ1dWq-53" value="sub-patcher[2]" style="swimlane;whiteSpace=wrap;html=1;" parent="1" vertex="1">
          <mxGeometry x="1380" y="440" width="150" height="190" as="geometry" />
        </mxCell>
        <mxCell id="fZgS-SUWpDb8ZDhZ1dWq-54" value="&amp;nbsp;(0) False" style="shape=cylinder3;whiteSpace=wrap;html=1;boundedLbl=1;backgroundOutline=1;size=15;fillColor=#d0cee2;strokeColor=#56517e;" parent="fZgS-SUWpDb8ZDhZ1dWq-53" vertex="1">
          <mxGeometry x="50.63" y="30" width="48.75" height="60" as="geometry" />
        </mxCell>
        <mxCell id="fZgS-SUWpDb8ZDhZ1dWq-55" value="(1)&lt;br&gt;True" style="shape=cylinder3;whiteSpace=wrap;html=1;boundedLbl=1;backgroundOutline=1;size=15;fillColor=#d0cee2;strokeColor=#56517e;" parent="fZgS-SUWpDb8ZDhZ1dWq-53" vertex="1">
          <mxGeometry x="50.63" y="110" width="48.75" height="60" as="geometry" />
        </mxCell>
        <mxCell id="fZgS-SUWpDb8ZDhZ1dWq-64" value="/patch(main)USA, (sub)sex, (sub[1])" style="label;whiteSpace=wrap;html=1;image=img/clipart/Gear_128x128.png" parent="1" vertex="1">
          <mxGeometry x="1170" y="760" width="470" height="50" as="geometry" />
        </mxCell>
        <mxCell id="fZgS-SUWpDb8ZDhZ1dWq-65" style="edgeStyle=orthogonalEdgeStyle;rounded=0;orthogonalLoop=1;jettySize=auto;html=1;entryX=0;entryY=0.25;entryDx=0;entryDy=0;" parent="1" source="fZgS-SUWpDb8ZDhZ1dWq-14" target="fZgS-SUWpDb8ZDhZ1dWq-43" edge="1">
          <mxGeometry relative="1" as="geometry" />
        </mxCell>
      </root>
    </mxGraphModel>
  </diagram>
</mxfile>
